<?xml version="1.0" encoding="utf-8"?>
<!-- Generator: Adobe Illustrator 16.0.0, SVG Export Plug-In . SVG Version: 6.00 Build 0)  -->
<!DOCTYPE svg PUBLIC "-//W3C//DTD SVG 1.1//EN" "http://www.w3.org/Graphics/SVG/1.1/DTD/svg11.dtd">
<svg version="1.1" id="Layer_1" xmlns="http://www.w3.org/2000/svg" xmlns:xlink="http://www.w3.org/1999/xlink" x="0px" y="0px"
	 width="523.006px" height="280.436px" viewBox="0 0 523.006 280.436" enable-background="new 0 0 523.006 280.436"
	 xml:space="preserve">
<rect x="244.273" y="44.235" transform="matrix(0.2656 -0.9641 0.9641 0.2656 139.5335 424.4982)" fill="#F2F2F2" width="208.218" height="152.866"/>
<g>
	<path fill="#E21936" d="M356.547,139.64c11.046,19.443,4.238,44.16-15.207,55.206c-19.442,11.046-44.159,4.237-55.204-15.205
		c-11.047-19.444-4.239-44.161,15.205-55.207C320.785,113.388,345.502,120.197,356.547,139.64"/>
	<path fill="#5D0024" d="M321.34,159.64l-17.4,36.562c-7.49-3.566-13.707-9.348-17.805-16.561
		c-8.795-15.479-6.396-35.026,5.88-47.919L321.34,159.64z"/>
	<path fill="#0080C5" d="M321.34,159.64l35.207-20c10.97,19.313,4.106,44.234-15.206,55.205c-11.388,6.47-25.232,7.028-37.104,1.496
		L321.34,159.64z"/>
	<path fill="#83D4F6" d="M321.34,159.64l35.207-20c3.369,5.932,5.186,12.62,5.279,19.441c0.095,6.821-1.536,13.557-4.741,19.58
		L321.34,159.64z"/>
	<path fill="#E21936" d="M378.825,115.122c-15.002-4.132-23.814-19.645-19.684-34.647c4.133-15.003,19.645-23.816,34.648-19.684
		c15.003,4.133,23.816,19.645,19.684,34.648C409.339,110.442,393.828,119.255,378.825,115.122"/>
	<path fill="#5D0024" d="M386.306,87.957l-9.427-26.553c5.44-1.931,11.344-2.145,16.91-0.612
		c11.944,3.29,20.383,14.088,20.686,26.473L386.306,87.957z"/>
	<path fill="#0080C5" d="M386.306,87.957l-7.481,27.165c-14.902-4.105-23.787-19.744-19.684-34.647
		c2.421-8.787,8.959-15.874,17.523-18.992L386.306,87.957z"/>
	<path fill="#83D4F6" d="M386.306,87.957l-7.481,27.165c-4.575-1.26-8.762-3.658-12.165-6.968c-3.402-3.31-5.915-7.429-7.301-11.968
		L386.306,87.957z"/>
	
		<rect x="319.717" y="38.051" transform="matrix(0.9641 0.2656 -0.2656 0.9641 22.1783 -87.3478)" fill="#545454" width="28.758" height="0.579"/>
	
		<rect x="318.134" y="43.796" transform="matrix(0.9641 0.2655 -0.2655 0.9641 23.6438 -86.7131)" fill="#545454" width="28.761" height="0.579"/>
	
		<rect x="316.551" y="49.541" transform="matrix(0.9641 0.2655 -0.2655 0.9641 25.1104 -86.0816)" fill="#545454" width="28.761" height="0.579"/>
	
		<rect x="314.969" y="55.286" transform="matrix(0.9641 0.2655 -0.2655 0.9641 26.5803 -85.4578)" fill="#545454" width="28.76" height="0.579"/>
	<path fill="#5D0024" d="M316.504,33.519c-0.329,1.196-1.565,1.897-2.76,1.568c-1.194-0.329-1.896-1.565-1.567-2.759
		s1.563-1.896,2.759-1.567C316.132,31.089,316.833,32.324,316.504,33.519"/>
	<path fill="#E21936" d="M314.943,39.188c-0.329,1.195-1.565,1.897-2.759,1.569c-1.196-0.33-1.896-1.565-1.569-2.759
		c0.331-1.196,1.564-1.898,2.76-1.568C314.57,36.759,315.271,37.994,314.943,39.188"/>
	<path fill="#83D4F6" d="M313.38,44.859c-0.328,1.195-1.564,1.896-2.759,1.568c-1.194-0.329-1.896-1.566-1.566-2.76
		c0.329-1.195,1.563-1.896,2.757-1.566C313.008,42.429,313.709,43.664,313.38,44.859"/>
	<path fill="#0080C5" d="M311.82,50.529c-0.33,1.194-1.565,1.896-2.761,1.567c-1.193-0.33-1.895-1.564-1.567-2.761
		c0.33-1.193,1.564-1.896,2.759-1.566C311.446,48.099,312.147,49.334,311.82,50.529"/>
	
		<rect x="110.367" y="42.512" transform="matrix(0.9965 -0.0837 0.0837 0.9965 -11.2943 15.8886)" fill="#14377D" width="147.096" height="200.362"/>
	
		<rect x="113.754" y="47.126" transform="matrix(0.9965 -0.0837 0.0837 0.9965 -11.2929 15.8865)" fill="#FFFFFF" width="140.321" height="191.133"/>
	
		<rect x="129.687" y="73.231" transform="matrix(0.9965 -0.0837 0.0837 0.9965 -5.5197 15.2915)" fill="#D0D2D3" width="99.961" height="0.531"/>
	
		<rect x="130.145" y="78.682" transform="matrix(0.9965 -0.0837 0.0837 0.9965 -5.974 15.3481)" fill="#D0D2D3" width="99.96" height="0.531"/>
	
		<rect x="130.603" y="84.133" transform="matrix(0.9965 -0.0837 0.0837 0.9965 -6.4288 15.4064)" fill="#D0D2D3" width="99.96" height="0.532"/>
	
		<rect x="131.061" y="89.584" transform="matrix(0.9965 -0.0837 0.0837 0.9965 -6.8831 15.463)" fill="#D0D2D3" width="99.959" height="0.531"/>
	
		<rect x="140.874" y="99.196" transform="matrix(0.9965 -0.0837 0.0837 0.9965 -7.6786 15.4353)" fill="#D0D2D3" width="78.845" height="0.247"/>
	
		<rect x="141.087" y="101.736" transform="matrix(0.9965 -0.0837 0.0837 0.9965 -7.8893 15.4596)" fill="#D0D2D3" width="78.846" height="0.248"/>
	
		<rect x="141.3" y="104.278" transform="matrix(0.9965 -0.0837 0.0837 0.9965 -8.1006 15.4852)" fill="#D0D2D3" width="78.846" height="0.248"/>
	
		<rect x="141.514" y="106.817" transform="matrix(0.9965 -0.0837 0.0837 0.9965 -8.3141 15.5154)" fill="#D0D2D3" width="78.846" height="0.248"/>
	
		<rect x="141.711" y="109.24" transform="matrix(0.9965 -0.0837 0.0837 0.9965 -8.5156 15.5395)" fill="#D0D2D3" width="78.845" height="0.248"/>
	
		<rect x="141.925" y="111.782" transform="matrix(0.9965 -0.0837 0.0837 0.9965 -8.7269 15.565)" fill="#D0D2D3" width="78.845" height="0.247"/>
	
		<rect x="142.139" y="114.322" transform="matrix(0.9965 -0.0837 0.0837 0.9965 -8.9392 15.593)" fill="#D0D2D3" width="78.845" height="0.248"/>
	
		<rect x="142.351" y="116.863" transform="matrix(0.9965 -0.0837 0.0837 0.9965 -9.1505 15.6184)" fill="#D0D2D3" width="78.846" height="0.247"/>
	
		<rect x="134.336" y="128.988" transform="matrix(0.9965 -0.0837 0.0837 0.9965 -10.1723 15.7453)" fill="#D0D2D3" width="96.917" height="0.531"/>
	
		<rect x="134.793" y="134.439" transform="matrix(0.9965 -0.0837 0.0837 0.9965 -10.6291 15.8065)" fill="#D0D2D3" width="96.918" height="0.532"/>
	
		<rect x="135.251" y="139.891" transform="matrix(0.9965 -0.0837 0.0837 0.9965 -11.0818 15.8611)" fill="#D0D2D3" width="96.917" height="0.531"/>
	
		<rect x="135.709" y="145.342" transform="matrix(0.9965 -0.0837 0.0837 0.9965 -11.537 15.9196)" fill="#D0D2D3" width="96.917" height="0.531"/>
	
		<rect x="145.518" y="154.828" transform="matrix(0.9965 -0.0837 0.0837 0.9965 -12.3158 16.0166)" fill="#D0D2D3" width="78.845" height="0.246"/>
	
		<rect x="145.73" y="157.368" transform="matrix(0.9965 -0.0837 0.0837 0.9965 -12.5275 16.0432)" fill="#D0D2D3" width="78.845" height="0.247"/>
	
		<rect x="145.944" y="159.908" transform="matrix(0.9965 -0.0837 0.0837 0.9965 -12.7411 16.0725)" fill="#D0D2D3" width="78.845" height="0.247"/>
	
		<rect x="146.157" y="162.449" transform="matrix(0.9965 -0.0837 0.0837 0.9965 -12.9529 16.0991)" fill="#D0D2D3" width="78.846" height="0.246"/>
	
		<rect x="146.354" y="164.871" transform="matrix(0.9965 -0.0837 0.0837 0.9965 -13.153 16.1217)" fill="#D0D2D3" width="78.846" height="0.247"/>
	
		<rect x="146.568" y="167.412" transform="matrix(0.9965 -0.0837 0.0837 0.9965 -13.3629 16.1459)" fill="#D0D2D3" width="78.846" height="0.247"/>
	
		<rect x="146.782" y="169.954" transform="matrix(0.9965 -0.0837 0.0837 0.9965 -13.575 16.1729)" fill="#D0D2D3" width="78.845" height="0.245"/>
	
		<rect x="146.995" y="172.495" transform="matrix(0.9965 -0.0837 0.0837 0.9965 -13.7888 16.2022)" fill="#D0D2D3" width="78.844" height="0.246"/>
	<path fill="#C0BEC0" d="M164.262,211.766c0.73,8.777-5.791,16.484-14.567,17.216c-8.776,0.732-16.484-5.789-17.216-14.563
		c-0.731-8.777,5.789-16.487,14.565-17.219C155.821,196.468,163.529,202.989,164.262,211.766"/>
	
		<rect x="148.601" y="32.422" transform="matrix(0.9965 -0.0831 0.0831 0.9965 -2.9341 14.8206)" fill="#D0D2D3" width="55.917" height="20.464"/>
	<path fill="#D0D2D3" d="M174.792,19.589c-7.021,0.584-12.239,6.751-11.652,13.772c0.585,7.021,6.751,12.238,13.772,11.653
		c7.021-0.586,12.238-6.751,11.653-13.772C187.979,24.22,181.813,19.003,174.792,19.589 M176.396,38.835
		c-3.608,0.301-6.778-2.379-7.078-5.988c-0.301-3.607,2.38-6.776,5.987-7.078c3.608-0.301,6.777,2.38,7.079,5.989
		C182.685,35.366,180.004,38.534,176.396,38.835"/>
	<path fill="#0080C5" d="M147.664,210.672c-2.601,1.306-3.893,2.943-4.604,5.752c-0.169,0.667,1.511,0.681,1.822,0.461
		c3.477-2.468,6.039-5.66,8.565-9.062c-0.629-0.159-1.257-0.321-1.886-0.479c-1.136,2.166-2.274,4.333-3.413,6.501
		c-0.406,0.774,1.43,0.756,1.772,0.584c5.353-2.664,9.7-6.864,15.07-9.496l-1.802-0.329c0.833,3.05,0.047,5.053,3.972,4.577
		c2.964-0.359,5.956-1.966,8.746-2.917c5.756-1.958,10.838-1.767,16.612,0.059c0.899,0.286,1.918-0.467,0.636-0.874
		c-4.797-1.516-9.318-2.407-14.299-1.301c-2.926,0.648-5.692,1.826-8.517,2.804c-3.124,1.084-4.361,0.71-5.204-2.382
		c-0.168-0.613-1.387-0.532-1.803-0.329c-5.37,2.636-9.717,6.835-15.071,9.5c0.592,0.195,1.182,0.392,1.773,0.586
		c1.137-2.167,2.274-4.336,3.412-6.503c0.363-0.693-1.519-0.975-1.886-0.479c-2.475,3.33-4.911,6.42-8.337,8.852
		c0.607,0.151,1.215,0.306,1.823,0.459c0.657-2.595,1.957-4.13,4.276-5.291C150.049,211,148.214,210.397,147.664,210.672"/>
	<path fill="#14377D" d="M94.275,162.958L94.275,162.958c-0.203,0.273-0.596,0.334-0.872,0.13l-2.741-2.023
		c-0.275-0.204-0.335-0.595-0.131-0.87c0.204-0.276,0.596-0.336,0.872-0.132l2.741,2.022
		C94.419,162.29,94.479,162.682,94.275,162.958"/>
	<path fill="#0080C5" d="M91.834,153.854l-0.228,7.074l-6.694,2.303L2.095,102.085c-2.292-1.69-2.778-4.919-1.087-7.211l0.796-1.078
		c1.693-2.291,4.922-2.778,7.213-1.085L91.834,153.854z"/>
	
		<rect x="5.19" y="98.708" transform="matrix(0.594 -0.8045 0.8045 0.594 -75.4928 51.2477)" fill="#14377D" width="15.672" height="3.416"/>
	<polygon fill="#14377D" points="18.408,94.649 38.588,111.547 37.515,113.001 16.379,97.398 	"/>
	<path fill="#FFFFFF" d="M502.091,143.253l-102.109,15.525c-2.529,0.384-2.134,2.831-2.134,2.831l17.8,117.082
		c0.247,1.61,1.122,1.692,1.122,1.692l105.435-16.028c0,0,0.965-0.362,0.72-1.976L505.124,145.3
		C505.124,145.3,504.622,142.869,502.091,143.253"/>
	<path fill="#D0D2D3" d="M415.661,278.69c0.245,1.61,1.117,1.746,1.117,1.746l105.437-16.032c0,0,0.998-0.418,0.754-2.026
		l-10.213-67.174l-107.307,16.314L415.661,278.69z"/>
	<path fill="#D0D2D3" d="M502.083,143.209l-102.108,15.524c-2.525,0.418-2.116,2.875-2.116,2.875l7.589,49.909l107.308-16.314
		l-7.59-49.91C505.166,145.293,504.621,142.86,502.083,143.209"/>
	
		<rect x="410.021" y="169.12" transform="matrix(0.9886 -0.1503 0.1503 0.9886 -22.1824 70.7225)" fill="#FFFFFF" width="93.395" height="25.944"/>
	
		<rect x="414.03" y="214.139" transform="matrix(0.9886 -0.1502 0.1502 0.9886 -28.6425 65.9973)" fill="#E21936" width="16.828" height="16.827"/>
	
		<rect x="433.163" y="211.23" transform="matrix(0.9886 -0.1502 0.1502 0.9886 -27.9869 68.8349)" fill="#DCF1FC" width="16.829" height="16.828"/>
	
		<rect x="452.295" y="208.322" transform="matrix(0.9887 -0.1502 0.1502 0.9887 -27.3244 71.6482)" fill="#DCF1FC" width="16.829" height="16.826"/>
	
		<rect x="471.428" y="205.412" transform="matrix(0.9886 -0.1503 0.1503 0.9886 -26.6903 74.5599)" fill="#DCF1FC" width="16.826" height="16.829"/>
	
		<rect x="490.561" y="202.503" transform="matrix(0.9886 -0.1502 0.1502 0.9886 -26.0255 77.3638)" fill="#0080C5" width="16.828" height="16.827"/>
	
		<rect x="416.939" y="233.27" transform="matrix(0.9886 -0.1502 0.1502 0.9886 -31.4823 66.6477)" fill="#DCF1FC" width="16.829" height="16.828"/>
	
		<rect x="436.072" y="230.361" transform="matrix(0.9886 -0.1502 0.1502 0.9886 -30.8297 69.4932)" fill="#DCF1FC" width="16.828" height="16.827"/>
	
		<rect x="455.204" y="227.453" transform="matrix(0.9886 -0.1502 0.1502 0.9886 -30.1755 72.3347)" fill="#DCF1FC" width="16.828" height="16.827"/>
	
		<rect x="474.337" y="224.542" transform="matrix(0.9886 -0.1503 0.1503 0.9886 -29.5316 75.2101)" fill="#DCF1FC" width="16.827" height="16.829"/>
	
		<rect x="493.468" y="221.634" transform="matrix(0.9886 -0.1503 0.1503 0.9886 -28.8758 78.0482)" fill="#0080C5" width="16.828" height="16.829"/>
	
		<rect x="419.848" y="252.4" transform="matrix(0.9886 -0.1504 0.1504 0.9886 -34.3586 67.3855)" fill="#DCF1FC" width="16.828" height="16.83"/>
	
		<rect x="438.981" y="249.493" transform="matrix(0.9886 -0.1504 0.1504 0.9886 -33.6927 70.2026)" fill="#DCF1FC" width="16.828" height="16.828"/>
	
		<rect x="458.113" y="246.584" transform="matrix(0.9886 -0.1504 0.1504 0.9886 -33.0393 73.0506)" fill="#DCF1FC" width="16.827" height="16.827"/>
	
		<rect x="477.245" y="243.677" transform="matrix(0.9886 -0.1503 0.1503 0.9886 -32.373 75.8602)" fill="#DCF1FC" width="16.828" height="16.827"/>
	
		<rect x="496.378" y="240.766" transform="matrix(0.9886 -0.1504 0.1504 0.9886 -31.728 78.7336)" fill="#0080C5" width="16.828" height="16.829"/>
	<path fill="#FFFFFF" d="M420.231,224.262l-0.217,1.496l-0.952,0.146l0.853-5.295l1.175-0.18l2.407,4.799l-0.988,0.151l-0.674-1.363
		L420.231,224.262z M421.571,223.345l-0.585-1.182c-0.145-0.292-0.279-0.624-0.399-0.906l-0.015,0.004
		c-0.03,0.305-0.052,0.666-0.097,0.979l-0.2,1.302L421.571,223.345z"/>
	<path fill="#FFFFFF" d="M427.636,224.447c-0.2,0.146-0.663,0.33-1.269,0.422c-1.604,0.245-2.729-0.611-2.962-2.146
		c-0.253-1.662,0.747-2.842,2.291-3.077c0.606-0.093,1.06-0.029,1.262,0.039l-0.09,0.763c-0.257-0.067-0.601-0.107-1.018-0.043
		c-1.027,0.157-1.671,0.912-1.486,2.126c0.169,1.108,0.928,1.722,2.037,1.552c0.373-0.056,0.754-0.19,0.975-0.34L427.636,224.447z"
		/>
	<polygon fill="#FFFFFF" points="441.133,218.417 441.118,218.418 440.295,219.005 440.033,218.333 441.126,217.569 
		441.899,217.451 442.637,222.319 441.747,222.457 	"/>
	<path fill="#FFFFFF" d="M459.433,219.766l-0.086-0.563l0.496-0.618c0.985-1.238,1.434-1.905,1.347-2.549
		c-0.068-0.436-0.358-0.782-0.994-0.685c-0.428,0.064-0.762,0.338-0.979,0.563l-0.369-0.609c0.308-0.338,0.808-0.637,1.421-0.73
		c1.078-0.164,1.706,0.438,1.828,1.231c0.13,0.853-0.38,1.635-1.108,2.55l-0.369,0.432l0.001,0.016l2.001-0.303l0.114,0.762
		L459.433,219.766z"/>
	<path fill="#FFFFFF" d="M478.92,215.83c0.204,0.085,0.689,0.202,1.153,0.131c0.705-0.107,0.929-0.547,0.863-0.927
		c-0.088-0.577-0.665-0.743-1.226-0.657l-0.428,0.065l-0.102-0.674l0.413-0.063c0.425-0.066,0.936-0.343,0.859-0.828
		c-0.049-0.331-0.337-0.57-0.87-0.488c-0.396,0.06-0.768,0.291-0.948,0.458l-0.311-0.635c0.246-0.237,0.759-0.499,1.343-0.588
		c1.003-0.152,1.604,0.323,1.701,0.959c0.078,0.511-0.158,0.975-0.727,1.276l0.003,0.015c0.608,0.014,1.155,0.392,1.256,1.052
		c0.125,0.821-0.465,1.578-1.671,1.761c-0.591,0.092-1.128,0.004-1.415-0.128L478.92,215.83z"/>
	<path fill="#FFFFFF" d="M425.724,243.755l-0.188-1.237l-2.201,0.338l-0.093-0.6l1.524-3.333l1.087-0.168l0.446,2.938l0.63-0.099
		l0.103,0.7l-0.629,0.093l0.189,1.237L425.724,243.755z M425.431,241.822l-0.202-1.323c-0.04-0.277-0.078-0.563-0.099-0.852
		l-0.029,0.006c-0.104,0.329-0.191,0.596-0.302,0.887l-0.688,1.47l-0.006,0.017L425.431,241.822z"/>
	<path fill="#FFFFFF" d="M445.574,236.539l-1.873,0.285l0.007,0.997c0.107-0.034,0.206-0.056,0.348-0.077
		c0.428-0.065,0.869-0.033,1.232,0.135c0.401,0.175,0.733,0.547,0.823,1.137c0.141,0.931-0.514,1.804-1.713,1.985
		c-0.562,0.087-1.055,0.016-1.332-0.089l0.081-0.725c0.229,0.08,0.67,0.159,1.11,0.092c0.54-0.081,1.011-0.468,0.92-1.052
		c-0.082-0.554-0.552-0.858-1.524-0.71c-0.271,0.041-0.471,0.087-0.66,0.147l-0.051-2.507l2.516-0.383L445.574,236.539z"/>
	<path fill="#FFFFFF" d="M464.562,233.538c-0.136,0.021-0.286,0.045-0.469,0.094c-1.001,0.275-1.399,0.979-1.417,1.671l0.022-0.003
		c0.197-0.313,0.536-0.563,1.023-0.638c0.838-0.128,1.58,0.372,1.731,1.359c0.141,0.93-0.418,1.842-1.45,2
		c-1.184,0.181-1.973-0.62-2.155-1.82c-0.142-0.933,0.081-1.748,0.515-2.313c0.387-0.488,0.934-0.818,1.619-0.983
		c0.2-0.052,0.349-0.076,0.462-0.085L464.562,233.538z M464.524,236.217c-0.085-0.562-0.455-0.92-0.993-0.838
		c-0.345,0.052-0.617,0.31-0.717,0.622c-0.026,0.081-0.036,0.175-0.016,0.303c0.113,0.642,0.5,1.12,1.091,1.028
		C464.369,237.26,464.613,236.801,464.524,236.217"/>
	<polygon fill="#FFFFFF" points="484.288,229.873 484.378,230.462 482.97,235.053 481.997,235.201 483.426,230.8 483.424,230.784 
		481.133,231.131 481.016,230.37 	"/>
	<path fill="#FFFFFF" d="M424.809,263.043c-0.094-0.608,0.198-1.074,0.721-1.406l-0.003-0.021c-0.547-0.172-0.841-0.54-0.904-0.969
		c-0.12-0.792,0.5-1.438,1.422-1.58c1.049-0.157,1.623,0.398,1.714,0.996c0.064,0.414-0.09,0.872-0.582,1.216l0.004,0.022
		c0.562,0.122,1.024,0.481,1.115,1.086c0.133,0.87-0.514,1.566-1.554,1.723C425.604,264.285,424.913,263.722,424.809,263.043
		 M427.371,262.605c-0.076-0.494-0.483-0.708-1.045-0.775c-0.436,0.205-0.649,0.559-0.59,0.964c0.048,0.413,0.421,0.741,0.937,0.662
		C427.161,263.379,427.434,263.024,427.371,262.605 M425.492,260.477c0.06,0.398,0.426,0.588,0.91,0.645
		c0.316-0.148,0.55-0.46,0.494-0.827c-0.051-0.336-0.306-0.658-0.8-0.584C425.632,259.784,425.439,260.125,425.492,260.477"/>
	<path fill="#FFFFFF" d="M446.414,260.362c0.146-0.007,0.286-0.034,0.509-0.093c0.354-0.085,0.694-0.268,0.931-0.525
		c0.276-0.302,0.438-0.701,0.458-1.173l-0.017-0.004c-0.204,0.314-0.524,0.522-0.997,0.596c-0.846,0.129-1.568-0.39-1.706-1.288
		c-0.142-0.93,0.454-1.848,1.496-2.005c1.131-0.173,1.873,0.627,2.054,1.81c0.156,1.041-0.074,1.836-0.505,2.392
		c-0.365,0.459-0.913,0.773-1.56,0.917c-0.207,0.055-0.416,0.086-0.553,0.099L446.414,260.362z M446.497,257.682
		c0.085,0.501,0.427,0.848,0.938,0.768c0.373-0.055,0.618-0.268,0.724-0.521c0.021-0.064,0.031-0.143,0.014-0.271
		c-0.093-0.658-0.427-1.19-1.025-1.099C446.681,256.627,446.407,257.091,446.497,257.682"/>
	<path fill="#FFFFFF" d="M468.335,255.183c0.236,1.565-0.227,2.639-1.388,2.816c-1.124,0.169-1.878-0.758-2.11-2.238
		c-0.23-1.515,0.259-2.629,1.396-2.803C467.411,252.78,468.118,253.745,468.335,255.183 M465.765,255.619
		c0.172,1.185,0.596,1.749,1.106,1.672c0.539-0.084,0.722-0.786,0.545-1.953c-0.173-1.131-0.544-1.758-1.098-1.673
		C465.824,253.74,465.571,254.4,465.765,255.619"/>
	<path fill="#FFFFFF" d="M486.117,252.48c0.236,1.564-0.229,2.639-1.389,2.813c-1.123,0.173-1.876-0.756-2.11-2.236
		c-0.23-1.514,0.258-2.629,1.396-2.803C485.191,250.077,485.897,251.042,486.117,252.48 M483.546,252.917
		c0.174,1.184,0.596,1.747,1.105,1.672c0.539-0.085,0.722-0.786,0.545-1.954c-0.172-1.13-0.543-1.757-1.098-1.673
		C483.605,251.036,483.353,251.697,483.546,252.917"/>
	<path fill="#FFFFFF" d="M490.129,251.87c0.236,1.564-0.228,2.639-1.388,2.814c-1.125,0.173-1.879-0.756-2.112-2.237
		c-0.229-1.514,0.262-2.628,1.398-2.802C489.203,249.466,489.91,250.432,490.129,251.87 M487.559,252.303
		c0.173,1.188,0.595,1.75,1.105,1.674c0.538-0.083,0.723-0.785,0.546-1.952c-0.172-1.131-0.543-1.758-1.098-1.674
		C487.619,250.426,487.366,251.085,487.559,252.303"/>
	
		<rect x="505.272" y="246.889" transform="matrix(-0.1515 -0.9885 0.9885 -0.1515 335.502 787.559)" fill="#FFFFFF" width="1.019" height="5.778"/>
	
		<rect x="501.483" y="226.329" transform="matrix(-0.8052 -0.5929 0.5929 -0.8052 770.5624 710.678)" fill="#FFFFFF" width="1.021" height="4.926"/>
	
		<rect x="501.8" y="227.311" transform="matrix(-0.5934 0.8049 -0.8049 -0.5934 985.3259 -38.1945)" fill="#FFFFFF" width="1.02" height="4.926"/>
	
		<rect x="498.656" y="207.741" transform="matrix(-0.1503 -0.9886 0.9886 -0.1503 366.3521 735.2885)" fill="#FFFFFF" width="1.02" height="4.927"/>
	
		<rect x="498.972" y="208.722" transform="matrix(-0.9885 0.1511 -0.1511 -0.9885 1025.1345 344.4994)" fill="#FFFFFF" width="1.021" height="4.927"/>
</g>
</svg>
