<?xml version="1.0" encoding="utf-8"?>
<!-- Generator: Adobe Illustrator 16.0.0, SVG Export Plug-In . SVG Version: 6.00 Build 0)  -->
<!DOCTYPE svg PUBLIC "-//W3C//DTD SVG 1.1//EN" "http://www.w3.org/Graphics/SVG/1.1/DTD/svg11.dtd">
<svg version="1.1" id="Layer_1" xmlns="http://www.w3.org/2000/svg" xmlns:xlink="http://www.w3.org/1999/xlink" x="0px" y="0px"
	 width="251.199px" height="197.626px" viewBox="0 0 251.199 197.626" enable-background="new 0 0 251.199 197.626"
	 xml:space="preserve">
<g>
	<g>
		<defs>
			<polygon id="SVGID_1_" points="31.151,191.33 136.067,193.632 251.199,154.871 70.378,149.051 			"/>
		</defs>
		<clipPath id="SVGID_2_">
			<use xlink:href="#SVGID_1_"  overflow="visible"/>
		</clipPath>
		<defs>
			<filter id="Adobe_OpacityMaskFilter" filterUnits="userSpaceOnUse" x="31.151" y="149.051" width="220.048" height="44.581">
				<feColorMatrix  type="matrix" values="1 0 0 0 0  0 1 0 0 0  0 0 1 0 0  0 0 0 1 0"/>
			</filter>
		</defs>
		<mask maskUnits="userSpaceOnUse" x="31.151" y="149.051" width="220.048" height="44.581" id="SVGID_3_">
			<g filter="url(#Adobe_OpacityMaskFilter)">
				
					<linearGradient id="SVGID_4_" gradientUnits="userSpaceOnUse" x1="-68.9995" y1="213.6265" x2="-67.9995" y2="213.6265" gradientTransform="matrix(0 44.5812 44.5812 0 -9382.5557 3225.1428)">
					<stop  offset="0" style="stop-color:#000000"/>
					<stop  offset="0.1618" style="stop-color:#070707"/>
					<stop  offset="0.3929" style="stop-color:#1A1A1A"/>
					<stop  offset="0.6658" style="stop-color:#383838"/>
					<stop  offset="0.9684" style="stop-color:#636363"/>
					<stop  offset="0.9875" style="stop-color:#666666"/>
					<stop  offset="1" style="stop-color:#666666"/>
				</linearGradient>
				<rect x="31.151" y="149.051" clip-path="url(#SVGID_2_)" fill="url(#SVGID_4_)" width="220.048" height="44.581"/>
			</g>
		</mask>
		
			<linearGradient id="SVGID_5_" gradientUnits="userSpaceOnUse" x1="-68.9995" y1="213.6265" x2="-67.9995" y2="213.6265" gradientTransform="matrix(0 44.5812 44.5812 0 -9382.5557 3225.1428)">
			<stop  offset="0" style="stop-color:#FFFFFF"/>
			<stop  offset="0.0958" style="stop-color:#F8F8F8"/>
			<stop  offset="0.233" style="stop-color:#E6E5E5"/>
			<stop  offset="0.3951" style="stop-color:#C7C6C7"/>
			<stop  offset="0.5763" style="stop-color:#9D9B9C"/>
			<stop  offset="0.7733" style="stop-color:#676464"/>
			<stop  offset="0.9806" style="stop-color:#252122"/>
			<stop  offset="0.9875" style="stop-color:#231F20"/>
			<stop  offset="1" style="stop-color:#231F20"/>
		</linearGradient>
		
			<rect x="31.151" y="149.051" clip-path="url(#SVGID_2_)" mask="url(#SVGID_3_)" fill="url(#SVGID_5_)" width="220.048" height="44.581"/>
	</g>
	<g>
		<path fill="#2B2B2B" d="M139.554,12.079v173.285c0,6.645-5.436,12.079-12.079,12.079H39.649c-6.645,0-12.079-5.435-12.079-12.079
			V12.079C27.57,5.435,33.004,0,39.649,0h87.825C134.118,0,139.554,5.435,139.554,12.079"/>
		<rect x="35.823" y="17.092" fill="#FFFFFF" width="95.479" height="161.817"/>
		<path fill="#9EA0A3" d="M83.561,183.3c2.574,0,4.664,2.087,4.664,4.663c0,2.574-2.09,4.661-4.664,4.661
			c-2.576,0-4.663-2.087-4.663-4.661C78.898,185.387,80.985,183.3,83.561,183.3"/>
		<path fill="#9EA0A3" d="M95.909,9.061L95.909,9.061c0,0.904-0.738,1.642-1.643,1.642H78.599c-0.901,0-1.641-0.738-1.641-1.642
			s0.74-1.642,1.641-1.642h15.667C95.171,7.419,95.909,8.157,95.909,9.061"/>
		<path fill="#9EA0A3" d="M72.856,7.42c0.906,0,1.642,0.735,1.642,1.642c0,0.906-0.736,1.641-1.642,1.641
			c-0.906,0-1.642-0.735-1.642-1.641C71.214,8.155,71.95,7.42,72.856,7.42"/>
	</g>
	<g>
		<defs>
			<rect id="SVGID_6_" y="13.323" width="131.302" height="184.303"/>
		</defs>
		<clipPath id="SVGID_7_">
			<use xlink:href="#SVGID_6_"  overflow="visible"/>
		</clipPath>
		
			<rect x="27.452" y="54.453" transform="matrix(0.9916 -0.1297 0.1297 0.9916 -12.8893 9.3483)" clip-path="url(#SVGID_7_)" fill="#D3D3D3" width="75.756" height="98.366"/>
		
			<rect x="41.133" y="43.02" transform="matrix(1 0.0074 -0.0074 1 0.6856 -0.5831)" clip-path="url(#SVGID_7_)" fill="#E3F7FF" width="75.757" height="98.366"/>
		<g clip-path="url(#SVGID_7_)">
			<g>
				<defs>
					<rect id="SVGID_8_" x="54.983" y="53.959" width="141.243" height="139.199"/>
				</defs>
				<clipPath id="SVGID_9_">
					<use xlink:href="#SVGID_8_"  overflow="visible"/>
				</clipPath>
				<g clip-path="url(#SVGID_9_)">
					<defs>
						<polygon id="SVGID_10_" points="117.89,89.503 84.725,115.658 121.384,162.142 165.584,127.287 142.425,97.921 
							121.298,86.815 						"/>
					</defs>
					<clipPath id="SVGID_11_">
						<use xlink:href="#SVGID_10_"  overflow="visible"/>
					</clipPath>
					
						<linearGradient id="SVGID_12_" gradientUnits="userSpaceOnUse" x1="-69" y1="213.5698" x2="-68" y2="213.5698" gradientTransform="matrix(-16.1035 -20.7367 12.9096 -9.776 -3729.853 798.5645)">
						<stop  offset="0" style="stop-color:#FFFFFF"/>
						<stop  offset="0.0318" style="stop-color:#FFFFFF"/>
						<stop  offset="0.9694" style="stop-color:#D0D1D2"/>
						<stop  offset="1" style="stop-color:#D0D1D2"/>
					</linearGradient>
					<polygon clip-path="url(#SVGID_11_)" fill="url(#SVGID_12_)" points="202.419,134.249 135.642,48.258 47.89,114.709 
						114.668,200.7 					"/>
				</g>
			</g>
		</g>
		
			<rect x="3.591" y="96.86" transform="matrix(0.9894 0.1452 -0.1452 0.9894 16.5048 -3.5859)" clip-path="url(#SVGID_7_)" fill="#FAD3D9" width="58.452" height="28.825"/>
		
			<rect x="6.094" y="99.431" transform="matrix(0.9894 0.1452 -0.1452 0.9894 16.5029 -3.5857)" clip-path="url(#SVGID_7_)" fill="none" stroke="#E31837" stroke-width="0.319" stroke-miterlimit="10" width="53.447" height="23.682"/>
		<path clip-path="url(#SVGID_7_)" fill="#E31837" d="M48.941,117.468c-0.902-0.173-1.85-0.508-2.569-1.046l0.662-1.212
			c1.043,0.652,1.956,0.85,2.496,0.93c0.844,0.124,1.452-0.101,1.57-0.909c0.098-0.667-0.391-0.986-1.137-1.331
			c-1.477-0.65-2.811-1.185-2.557-2.916c0.201-1.37,1.215-2.216,2.805-2.164l0.189-1.295l1.038,0.15l-0.188,1.281
			c0.671,0.152,1.429,0.434,2.005,0.871L52.6,110.99c-0.865-0.509-1.438-0.633-2.013-0.717c-0.745-0.11-1.286,0.19-1.39,0.895
			c-0.095,0.655,0.643,0.972,1.434,1.297c1.037,0.428,2.556,1.043,2.264,3.029c-0.208,1.423-1.339,2.173-2.915,2.111l-0.187,1.281
			l-1.038-0.148L48.941,117.468z"/>
		
			<rect x="10.029" y="104.817" transform="matrix(0.9894 0.1452 -0.1452 0.9894 15.5487 -2.2281)" clip-path="url(#SVGID_7_)" fill="#E31837" width="26.018" height="1.174"/>
		
			<rect x="9.511" y="108.347" transform="matrix(0.9894 0.1452 -0.1452 0.9894 16.0595 -2.1157)" clip-path="url(#SVGID_7_)" fill="#E31837" width="26.019" height="1.174"/>
		
			<rect x="8.321" y="116.225" transform="matrix(0.9894 0.1453 -0.1453 0.9894 17.2271 -1.857)" clip-path="url(#SVGID_7_)" fill="#FFFFFF" width="26.019" height="1.636"/>
	</g>
	<g>
		<defs>
			<path id="SVGID_13_" d="M110.894,77.421c-1.064,0.23-2.051,0.843-2.725,1.797l-22.636,32.056
				c-1.428,2.021-0.941,4.843,1.081,6.27l26.582,18.771c2.021,1.429,4.843,0.941,6.271-1.08l11.836-16.761V90.046L114.44,78.14
				c-0.784-0.554-1.689-0.82-2.588-0.82C111.53,77.319,111.209,77.354,110.894,77.421"/>
		</defs>
		<clipPath id="SVGID_14_">
			<use xlink:href="#SVGID_13_"  overflow="visible"/>
		</clipPath>
		
			<linearGradient id="SVGID_15_" gradientUnits="userSpaceOnUse" x1="-69" y1="213.7651" x2="-68" y2="213.7651" gradientTransform="matrix(9.2527 42.5479 -42.5479 9.2527 9841.5586 1066.0402)">
			<stop  offset="0" style="stop-color:#E31837"/>
			<stop  offset="0.0367" style="stop-color:#E31837"/>
			<stop  offset="0.9694" style="stop-color:#780032"/>
			<stop  offset="1" style="stop-color:#780032"/>
		</linearGradient>
		<polygon clip-path="url(#SVGID_14_)" fill="url(#SVGID_15_)" points="71.558,80.048 86.236,147.543 143.849,135.015 
			129.171,67.519 		"/>
	</g>
	<g>
		<defs>
			<rect id="SVGID_16_" y="13.323" width="131.302" height="184.303"/>
		</defs>
		<clipPath id="SVGID_17_">
			<use xlink:href="#SVGID_16_"  overflow="visible"/>
		</clipPath>
		
			<rect x="106.666" y="90.212" transform="matrix(0.8169 0.5768 -0.5768 0.8169 76.6282 -54.0309)" clip-path="url(#SVGID_17_)" fill="#FFFFFF" width="33.478" height="6.902"/>
		
			<rect x="115.389" y="119.858" transform="matrix(0.8169 0.5768 -0.5768 0.8169 94.2949 -44.9396)" clip-path="url(#SVGID_17_)" fill="#4FCEF6" width="5.072" height="12.366"/>
		
			<rect x="121.699" y="114.568" transform="matrix(0.8169 0.5767 -0.5767 0.8169 90.2777 -50.2117)" clip-path="url(#SVGID_17_)" fill="#EDE7DD" width="5.073" height="5.073"/>
		
			<rect x="125.906" y="108.612" transform="matrix(0.8169 0.5767 -0.5767 0.8169 87.6126 -53.7287)" clip-path="url(#SVGID_17_)" fill="#000A23" width="5.073" height="5.073"/>
		
			<rect x="115.896" y="110.471" transform="matrix(0.8169 0.5767 -0.5767 0.8169 86.8523 -47.6153)" clip-path="url(#SVGID_17_)" fill="#EDE7DD" width="5.073" height="5.073"/>
		
			<rect x="120.103" y="104.514" transform="matrix(0.8169 0.5768 -0.5768 0.8169 84.2047 -51.1362)" clip-path="url(#SVGID_17_)" fill="#000A23" width="5.072" height="5.073"/>
		
			<rect x="110.093" y="106.373" transform="matrix(0.8168 0.5769 -0.5769 0.8168 83.4681 -45.0267)" clip-path="url(#SVGID_17_)" fill="#FFFFFF" width="5.073" height="5.073"/>
		
			<rect x="114.299" y="100.416" transform="matrix(0.8169 0.5768 -0.5768 0.8169 80.7851 -48.5407)" clip-path="url(#SVGID_17_)" fill="#000A23" width="5.074" height="5.073"/>
		
			<rect x="104.291" y="102.274" transform="matrix(0.8169 0.5767 -0.5767 0.8169 80.0012 -42.4226)" clip-path="url(#SVGID_17_)" fill="#FFFFFF" width="5.073" height="5.074"/>
		
			<rect x="108.497" y="96.318" transform="matrix(0.8169 0.5767 -0.5767 0.8169 77.3356 -45.9387)" clip-path="url(#SVGID_17_)" fill="#000A23" width="5.073" height="5.073"/>
		
			<rect x="98.487" y="98.177" transform="matrix(0.8169 0.5767 -0.5767 0.8169 76.5756 -39.8256)" clip-path="url(#SVGID_17_)" fill="#FFFFFF" width="5.073" height="5.073"/>
		
			<rect x="102.694" y="92.22" transform="matrix(0.8169 0.5768 -0.5768 0.8169 73.9254 -43.3455)" clip-path="url(#SVGID_17_)" fill="#000A23" width="5.072" height="5.073"/>
		
			<rect x="107.483" y="122.385" transform="matrix(0.8169 0.5768 -0.5768 0.8169 92.2016 -40.5842)" clip-path="url(#SVGID_17_)" fill="#FFFFFF" width="5.072" height="5.073"/>
		
			<rect x="111.689" y="116.427" transform="matrix(0.8169 0.5767 -0.5767 0.8169 89.5178 -44.0989)" clip-path="url(#SVGID_17_)" fill="#FFFFFF" width="5.073" height="5.074"/>
		
			<rect x="101.679" y="118.287" transform="matrix(0.8169 0.5768 -0.5768 0.8169 88.7824 -37.988)" clip-path="url(#SVGID_17_)" fill="#FFFFFF" width="5.074" height="5.073"/>
		
			<rect x="105.886" y="112.33" transform="matrix(0.8169 0.5768 -0.5768 0.8169 86.1169 -41.5057)" clip-path="url(#SVGID_17_)" fill="#FFFFFF" width="5.074" height="5.072"/>
		
			<rect x="95.877" y="114.188" transform="matrix(0.8169 0.5767 -0.5767 0.8169 85.3319 -35.3895)" clip-path="url(#SVGID_17_)" fill="#FFFFFF" width="5.073" height="5.074"/>
		
			<rect x="100.083" y="108.232" transform="matrix(0.8169 0.5768 -0.5768 0.8169 82.6831 -38.9078)" clip-path="url(#SVGID_17_)" fill="#FFFFFF" width="5.072" height="5.073"/>
		
			<rect x="90.074" y="110.091" transform="matrix(0.8169 0.5768 -0.5768 0.8169 81.9306 -32.7946)" clip-path="url(#SVGID_17_)" fill="#FFFFFF" width="5.072" height="5.073"/>
		
			<rect x="94.281" y="104.134" transform="matrix(0.8169 0.5768 -0.5768 0.8169 79.257 -36.3114)" clip-path="url(#SVGID_17_)" fill="#FFFFFF" width="5.072" height="5.073"/>
		<path clip-path="url(#SVGID_17_)" fill="#B5B7B9" d="M54.72,39.747c1.373,0.14,2.374,1.37,2.235,2.74l0.001,0.004l-0.571,5.602
			c-0.104,1.024-1.023,1.774-2.049,1.669c-1.025-0.104-1.774-1.024-1.67-2.05l0.499-4.879c0.071-0.676,0.674-1.168,1.349-1.1
			c0.676,0.07,1.167,0.674,1.1,1.35l-0.413,4.032l-0.894-0.091l0.412-4.033c0.019-0.181-0.114-0.345-0.296-0.363
			c-0.181-0.019-0.345,0.116-0.362,0.297l-0.5,4.88c-0.054,0.531,0.335,1.008,0.868,1.062c0.53,0.054,1.007-0.334,1.062-0.866
			l0.571-5.602c0.089-0.879-0.554-1.669-1.433-1.757c-0.88-0.09-1.669,0.552-1.759,1.432l-0.483,4.749l-0.896-0.092l0.485-4.749
			C52.116,40.609,53.349,39.605,54.72,39.747"/>
	</g>
	<g>
		<defs>
			
				<rect id="SVGID_18_" x="67.723" y="144.103" transform="matrix(-0.7506 -0.6608 0.6608 -0.7506 56.824 314.364)" width="40.033" height="4.71"/>
		</defs>
		<clipPath id="SVGID_19_">
			<use xlink:href="#SVGID_18_"  overflow="visible"/>
		</clipPath>
		
			<rect x="68.065" y="124.404" transform="matrix(0.6608 -0.7506 0.7506 0.6608 -80.166 115.5416)" clip-path="url(#SVGID_19_)" fill="#FFFBF0" width="39.349" height="44.108"/>
	</g>
	<g>
		<defs>
			
				<rect id="SVGID_20_" x="67.723" y="144.103" transform="matrix(-0.7506 -0.6608 0.6608 -0.7506 56.824 314.364)" width="40.033" height="4.71"/>
		</defs>
		<clipPath id="SVGID_21_">
			<use xlink:href="#SVGID_20_"  overflow="visible"/>
		</clipPath>
		
			<linearGradient id="SVGID_22_" gradientUnits="userSpaceOnUse" x1="-69" y1="213.6265" x2="-68" y2="213.6265" gradientTransform="matrix(-5.3274 6.0517 -6.0517 -5.3274 1013.823 1701.1124)">
			<stop  offset="0" style="stop-color:#0073CF"/>
			<stop  offset="0.0367" style="stop-color:#0073CF"/>
			<stop  offset="0.9694" style="stop-color:#012169"/>
			<stop  offset="1" style="stop-color:#012169"/>
		</linearGradient>
		<polygon clip-path="url(#SVGID_21_)" fill="url(#SVGID_22_)" points="85.637,115.018 56.287,148.359 89.842,177.898 
			119.192,144.557 		"/>
	</g>
	<g>
		<defs>
			<rect id="SVGID_23_" y="13.323" width="131.302" height="184.303"/>
		</defs>
		<clipPath id="SVGID_24_">
			<use xlink:href="#SVGID_23_"  overflow="visible"/>
		</clipPath>
		<polygon clip-path="url(#SVGID_24_)" fill="#FFFBF0" points="71.159,135.005 69.18,130.126 74.271,131.47 		"/>
		<polygon clip-path="url(#SVGID_24_)" fill="#0073CF" points="69.719,131.457 69.179,130.125 70.568,130.493 		"/>
	</g>
</g>
</svg>
