<?xml version="1.0" encoding="utf-8"?>
<!-- Generator: Adobe Illustrator 16.0.0, SVG Export Plug-In . SVG Version: 6.00 Build 0)  -->
<!DOCTYPE svg PUBLIC "-//W3C//DTD SVG 1.1//EN" "http://www.w3.org/Graphics/SVG/1.1/DTD/svg11.dtd">
<svg version="1.1" id="Layer_1" xmlns="http://www.w3.org/2000/svg" xmlns:xlink="http://www.w3.org/1999/xlink" x="0px" y="0px"
	 width="62.46px" height="59.305px" viewBox="0 0 62.46 59.305" enable-background="new 0 0 62.46 59.305" xml:space="preserve">
<path d="M37.559,18.595c-7.957,8.079-14.472,16.393-19.545,24.95l-1.398-3.151c-2.821-6.275-5.385-9.412-7.697-9.412
	c-2.705,0-5.678,1.711-8.919,5.135c1.923,0.657,3.654,1.993,5.201,4.007c1.546,2.011,3.221,5.118,5.024,9.321l1.258,2.927
	c1.322,3.212,2.18,5.527,2.568,6.934c0.99-0.93,2.865-2.354,5.629-4.277l3.333-2.251c4.139-8.733,10.145-18.133,18.01-28.191
	C48.894,14.53,56.037,7.084,62.46,2.25L60.881,0C53.284,4.323,45.512,10.521,37.559,18.595z"/>
</svg>
