<?xml version="1.0" encoding="utf-8"?>
<!-- Generator: Adobe Illustrator 16.0.0, SVG Export Plug-In . SVG Version: 6.00 Build 0)  -->
<!DOCTYPE svg PUBLIC "-//W3C//DTD SVG 1.1//EN" "http://www.w3.org/Graphics/SVG/1.1/DTD/svg11.dtd">
<svg version="1.1" id="Layer_1" xmlns="http://www.w3.org/2000/svg" xmlns:xlink="http://www.w3.org/1999/xlink" x="0px" y="0px"
	 width="28.395px" height="36px" viewBox="0 0 28.395 36" enable-background="new 0 0 28.395 36" xml:space="preserve">
<path fill="#FFFFFF" d="M28.39,4.171c0-2.295-1.876-4.175-4.172-4.171H4.171C1.879,0,0,1.876,0,4.174v27.654
	C0,34.123,1.879,36,4.177,36h20.044c2.293,0,4.174-1.877,4.174-4.172L28.39,4.171z M3.97,4.082h20.461v6.958H3.97V4.082z
	 M3.97,15.824h4.625v2.809H3.97V15.824z M11.894,15.824h4.619v2.809h-4.619V15.824z M19.805,15.824h4.626v2.809h-4.626V15.824z
	 M3.97,21.5h4.625v2.813H3.97V21.5z M11.894,21.5h4.619v2.813h-4.619V21.5z M19.805,21.5h4.626v2.813h-4.626V21.5z M3.97,27.184
	h4.625v2.807H3.97V27.184z M11.894,27.184h4.619v2.807h-4.619V27.184z M19.805,27.184h4.626v2.807h-4.626V27.184z"/>
</svg>
