<?xml version="1.0" encoding="utf-8"?>
<!-- Generator: Adobe Illustrator 16.0.0, SVG Export Plug-In . SVG Version: 6.00 Build 0)  -->
<!DOCTYPE svg PUBLIC "-//W3C//DTD SVG 1.1//EN" "http://www.w3.org/Graphics/SVG/1.1/DTD/svg11.dtd">
<svg version="1.1" id="Layer_1" xmlns="http://www.w3.org/2000/svg" xmlns:xlink="http://www.w3.org/1999/xlink" x="0px" y="0px"
	 width="36px" height="35.246px" viewBox="0 0 36 35.246" enable-background="new 0 0 36 35.246" xml:space="preserve">
<g>
	<path d="M32.02,17.279h-4.812v-4.811h4.812V17.279L32.02,17.279z M32.02,24.63h-4.812v-4.81h4.812V24.63L32.02,24.63z
		 M24.206,17.279h-4.809v-4.811h4.809V17.279L24.206,17.279z M24.206,24.63h-4.809v-4.81h4.809V24.63L24.206,24.63z M16.391,17.279
		h-4.807v-4.811h4.807V17.279L16.391,17.279z M16.391,24.63h-4.807v-4.81h4.807V24.63L16.391,24.63z M16.391,31.984h-4.807v-4.809
		h4.807V31.984L16.391,31.984z M8.578,17.279h-4.81v-4.811h4.81V17.279L8.578,17.279z M8.578,24.63h-4.81v-4.81h4.81V24.63
		L8.578,24.63z M8.578,31.984h-4.81v-4.809h4.81V31.984L8.578,31.984z M5.858,2.697c1.154,0,2.086,0.932,2.086,2.084
		c0,1.153-0.932,2.086-2.086,2.086c-1.151,0-2.09-0.933-2.09-2.086C3.768,3.629,4.707,2.697,5.858,2.697L5.858,2.697z M29.866,2.697
		c1.154,0,2.086,0.932,2.086,2.084c0,1.153-0.932,2.086-2.086,2.086s-2.087-0.933-2.087-2.086
		C27.779,3.629,28.712,2.697,29.866,2.697L29.866,2.697z M0,0v35.246h36V0H0L0,0z"/>
</g>
</svg>
