<?xml version="1.0" encoding="utf-8"?>
<!-- Generator: Adobe Illustrator 16.0.0, SVG Export Plug-In . SVG Version: 6.00 Build 0)  -->
<!DOCTYPE svg PUBLIC "-//W3C//DTD SVG 1.1//EN" "http://www.w3.org/Graphics/SVG/1.1/DTD/svg11.dtd">
<svg version="1.1" id="Layer_1" xmlns="http://www.w3.org/2000/svg" xmlns:xlink="http://www.w3.org/1999/xlink" x="0px" y="0px"
	 width="42.129px" height="37.931px" viewBox="0 0 42.129 37.931" enable-background="new 0 0 42.129 37.931" xml:space="preserve">
<g>
	<g>
		<polygon fill="#0052C2" points="7.364,37.931 12.913,37.931 15.874,33.19 10.324,33.19 		"/>
		<polygon fill="#0052C2" points="22.808,33.19 17.26,33.19 14.298,37.931 19.846,37.931 		"/>
		<path fill="#0052C2" d="M1.734,37.931h4.241l2.963-4.74H1.734C0.777,33.19,0,33.967,0,34.926v1.272
			C0,37.155,0.777,37.931,1.734,37.931z"/>
		<polygon fill="#0052C2" points="29.743,33.19 24.195,33.19 21.233,37.931 26.782,37.931 		"/>
	</g>
	<path fill="#0052C2" d="M38.89,0H15.645c-1.785,0-3.238,1.453-3.238,3.239V25.1c0,1.786,1.453,3.24,3.238,3.24h9.002l2.62,4.062
		l2.622-4.062h9.001c1.784,0,3.239-1.454,3.239-3.24V3.239C42.129,1.453,40.674,0,38.89,0z M34.144,14.782v0.683v8.311h-5.315
		h-4.203h-4.233v-8.993h-3.53L27.267,4.563l3.812,3.741V6.472h3.065v4.848l3.528,3.463H34.144z"/>
	<path fill="#0052C2" d="M34.901,33.19h-3.772l-2.962,4.74h6.734c0.959,0,1.734-0.775,1.734-1.732v-1.272
		C36.635,33.967,35.86,33.19,34.901,33.19z"/>
</g>
</svg>
