<?xml version="1.0" encoding="utf-8"?>
<!-- Generator: Adobe Illustrator 16.0.0, SVG Export Plug-In . SVG Version: 6.00 Build 0)  -->
<!DOCTYPE svg PUBLIC "-//W3C//DTD SVG 1.1//EN" "http://www.w3.org/Graphics/SVG/1.1/DTD/svg11.dtd">
<svg version="1.1" id="Layer_1" xmlns="http://www.w3.org/2000/svg" xmlns:xlink="http://www.w3.org/1999/xlink" x="0px" y="0px"
	 width="64.419px" height="64.436px" viewBox="0 0 64.419 64.436" enable-background="new 0 0 64.419 64.436" xml:space="preserve">
<g>
	<polygon fill="#FFFFFF" points="46.168,36.906 27.521,18.259 29.518,10.792 18.694,0 9.347,2.517 18.782,11.955 11.95,18.791 
		2.506,9.349 0,18.738 10.819,29.532 18.25,27.532 36.902,46.181 34.906,53.642 45.725,64.436 55.077,61.918 45.637,52.481 
		52.473,45.645 61.917,55.089 64.419,45.698 53.604,34.904 	"/>
	<g>
		<polygon fill="#FFFFFF" points="46.168,36.906 27.521,18.259 29.518,10.792 18.694,0 9.347,2.517 18.782,11.955 11.95,18.791 
			2.506,9.349 0,18.738 10.819,29.532 18.25,27.532 36.902,46.181 34.906,53.642 45.725,64.436 55.077,61.918 45.637,52.481 
			52.473,45.645 61.917,55.089 64.419,45.698 53.604,34.904 		"/>
	</g>
</g>
</svg>
