<?xml version="1.0" encoding="utf-8"?>
<!-- Generator: Adobe Illustrator 16.0.0, SVG Export Plug-In . SVG Version: 6.00 Build 0)  -->
<!DOCTYPE svg PUBLIC "-//W3C//DTD SVG 1.1//EN" "http://www.w3.org/Graphics/SVG/1.1/DTD/svg11.dtd">
<svg version="1.1" id="Layer_1" xmlns="http://www.w3.org/2000/svg" xmlns:xlink="http://www.w3.org/1999/xlink" x="0px" y="0px"
	 width="36px" height="33.615px" viewBox="0 0 36 33.615" enable-background="new 0 0 36 33.615" xml:space="preserve">
<g>
	<path fill="#DC1E32" d="M0,14.044C0,6.29,8.057,0,18.002,0C27.942,0,36,6.29,36,14.044c0,7.755-8.058,14.042-17.998,14.042
		c-1.092,0-2.168-0.09-3.21-0.236l-7.882,5.766l1.122-7.881C3.195,23.211,0,18.918,0,14.044L0,14.044z"/>
	<path fill="#DC1E32" d="M18.002,0C27.942,0,36,6.29,36,14.044c0,7.755-8.058,14.042-17.998,14.042c-1.092,0-2.168-0.09-3.21-0.236
		l-7.882,5.766l1.122-7.881C3.195,23.211,0,18.918,0,14.044C0,6.29,8.057,0,18.002,0"/>
</g>
</svg>
