<?xml version="1.0" encoding="utf-8"?>
<!-- Generator: Adobe Illustrator 16.0.0, SVG Export Plug-In . SVG Version: 6.00 Build 0)  -->
<!DOCTYPE svg PUBLIC "-//W3C//DTD SVG 1.1//EN" "http://www.w3.org/Graphics/SVG/1.1/DTD/svg11.dtd">
<svg version="1.1" id="Layer_1" xmlns="http://www.w3.org/2000/svg" xmlns:xlink="http://www.w3.org/1999/xlink" x="0px" y="0px"
	 width="72.004px" height="47.938px" viewBox="0 0 72.004 47.938" enable-background="new 0 0 72.004 47.938" xml:space="preserve">
<path fill="#DC1431" d="M71.559,10.081c-0.781-3.78-4.5-7.2-4.5-7.2l-9.24,2.88c0,0-4.078,1.44-12.358,0
	c-4.007-0.696-7.694,0.688-10.458,2.314c-2.739-0.974-5.824-1.655-9.373-1.833C22.099,6.067,12.486,2.06,9.081,0.53L7.9,0
	L6.965,0.896c-0.459,0.439-4.52,4.397-5.81,7.854c-1.266,3.395-1.163,9.241-1.147,9.897l0.039,1.565l1.542,0.277
	c3.838,0.689,10.864,5.275,11.822,6.757c0.212,0.328,0.407,0.646,0.6,0.957c1.034,1.682,2.104,3.418,5.13,5.978
	c0.216,0.183,0.466,0.38,0.739,0.588c-0.212,0.776,0.032,1.603,1.16,2.645c1.871,1.728,2.246,0.627,2.785,1.152
	c0.539,0.526,0.012,1.504,1.824,2.906c2.134,1.649,2.823,0.891,3.465,1.317c0.642,0.43,0.066,0.898,1.771,2.103
	c2.231,1.577,3.147-0.027,4.013,0.271c0.609,0.211,0.187,0.006,1.298,1.014c0.842,0.689,1.984,0.69,2.65,0.048
	c0.063,0.033,0.129,0.068,0.182,0.098c0.412,0.223,0.938,0.498,1.492,0.748c0.657,0.557,1.517,0.867,2.422,0.867
	c0.465,0,0.926-0.08,1.371-0.236l0.026-0.008l0.101-0.039c0.314-0.123,0.59-0.264,0.84-0.43c0.443-0.298,0.816-0.662,1.109-1.072
	c0.334,0.072,0.676,0.108,1.019,0.108c0.921,0,1.808-0.268,2.565-0.772c0.799-0.535,1.379-1.291,1.717-2.152
	c0.268,0.043,0.539,0.064,0.813,0.064c1.036,0,2.039-0.305,2.899-0.883c1.174-0.781,1.967-1.98,2.234-3.375
	c0.018-0.088,0.032-0.177,0.045-0.265c0.809-0.055,1.582-0.315,2.254-0.766c1.078-0.721,1.791-1.84,2.002-3.152
	c0.203-1.258-0.084-2.547-0.809-3.631l-2.294-3.433c2.267-2.146,7.138-6.213,13.022-7.857C71.857,20.04,72.338,13.86,71.559,10.081z
	 M58.868,36.517c-0.457,0.307-0.979,0.452-1.502,0.452c-0.972,0-1.951-0.502-2.562-1.411l0.43,0.686
	c1.041,1.555,0.638,3.652-0.899,4.678c-0.563,0.379-1.201,0.56-1.833,0.56c-1.045,0-2.075-0.492-2.738-1.396
	c0.68,1.371,0.344,3.004-0.861,3.81c-0.455,0.305-0.973,0.448-1.496,0.448c-0.825,0-1.663-0.36-2.282-1.024
	c0.272,0.791-0.082,1.758-0.91,2.313c-0.151,0.103-0.312,0.175-0.471,0.238c-0.009,0.002-0.015,0.004-0.021,0.006
	c-0.26,0.099-0.525,0.146-0.783,0.146c-0.521,0-1.01-0.195-1.344-0.57c-0.539-0.229-1.06-0.497-1.492-0.728l3.709-4.532
	c0.638-0.779,0.426-2.006-0.471-2.74c-0.779-0.639-1.818-0.691-2.498-0.186l2.536-3.099c1.093-1.336,0.983-3.233-0.241-4.24
	c-1.219-0.993-3.078-0.735-4.176,0.572l0.422-0.514c1.188-1.449,0.986-3.574-0.443-4.746c-1.434-1.172-3.554-0.947-4.741,0.502
	l-0.584,0.713c0.693-1.25,0.476-2.801-0.595-3.676c-1.214-0.995-3.067-0.742-4.136,0.563l-8.005,9.778
	c-0.18-0.14-0.351-0.275-0.5-0.401c-3.352-2.834-4.038-4.473-5.358-6.512c-1.32-2.04-8.843-6.841-13.095-7.604
	c0,0-0.147-6.035,1.026-9.181c1.174-3.145,5.34-7.139,5.34-7.139s12.572,5.646,17.238,5.879C28.289,8.3,30.73,8.762,32.95,9.426
	c-1.747,1.285-2.806,2.41-2.852,2.456c-0.12,0.12-5.759,5.399-6.239,5.879c-0.27,0.271-2.22,2.221-0.58,4.445
	c0.742,1.008,1.842,1.604,5.14-0.365c8.04-4.8,9.603-5.104,9.994-5.399c1.091-0.525,2.666-0.705,6.649,0.84
	c4.199,2.144,4.033,2.067,5.672,3.084c0.107,0.077,0.218,0.16,0.326,0.235c0.131,0.059,0.26,0.127,0.383,0.205
	c0.002,0,0.002,0.001,0.004,0.001c0.002,0.001,0.004,0.003,0.006,0.005c0.509,0.479,0.852,0.844,1.252,1.372l6.828,10.214
	C60.473,33.798,60.173,35.646,58.868,36.517z"/>
</svg>
