<?xml version="1.0" encoding="utf-8"?>
<!-- Generator: Adobe Illustrator 16.0.0, SVG Export Plug-In . SVG Version: 6.00 Build 0)  -->
<!DOCTYPE svg PUBLIC "-//W3C//DTD SVG 1.1//EN" "http://www.w3.org/Graphics/SVG/1.1/DTD/svg11.dtd">
<svg version="1.1" id="Layer_1" xmlns="http://www.w3.org/2000/svg" xmlns:xlink="http://www.w3.org/1999/xlink" x="0px" y="0px"
	 width="15.412px" height="15.411px" viewBox="0 0 15.412 15.411" enable-background="new 0 0 15.412 15.411" xml:space="preserve">
<g>
	<path fill="#DC1431" d="M4.439,3.949c-0.92,0-1.057,1.001-1.057,1.798c0,1.001,0.178,1.743,1.057,1.743
		c0.811,0,0.988-0.851,0.988-1.743C5.427,4.965,5.332,3.949,4.439,3.949"/>
	<path fill="#DC1431" d="M11.027,7.6c-0.919,0-1.057,1.002-1.057,1.798c0,1.002,0.179,1.757,1.057,1.757
		c0.81,0,0.987-0.851,0.987-1.77C12.014,8.616,11.918,7.6,11.027,7.6"/>
	<path fill="#DC1431" d="M7.706,0C3.451,0,0,3.449,0,7.705s3.451,7.706,7.706,7.706c4.256,0,7.706-3.45,7.706-7.706
		S11.961,0,7.706,0 M1.954,5.748c0-1.414,0.522-2.856,2.485-2.856c1.976,0,2.415,1.483,2.415,2.841c0,1.442-0.604,2.814-2.429,2.814
		C2.476,8.547,1.954,7.216,1.954,5.748 M6.113,12.39H4.919l4.323-9.991h1.182L6.113,12.39z M11.013,12.197
		c-1.949,0-2.471-1.316-2.471-2.813c0-1.4,0.521-2.839,2.483-2.839c1.978,0,2.416,1.481,2.416,2.839
		C13.442,10.839,12.838,12.197,11.013,12.197"/>
</g>
</svg>
