<?xml version="1.0" encoding="utf-8"?>
<!-- Generator: Adobe Illustrator 16.0.0, SVG Export Plug-In . SVG Version: 6.00 Build 0)  -->
<!DOCTYPE svg PUBLIC "-//W3C//DTD SVG 1.1//EN" "http://www.w3.org/Graphics/SVG/1.1/DTD/svg11.dtd">
<svg version="1.1" id="Layer_1" xmlns="http://www.w3.org/2000/svg" xmlns:xlink="http://www.w3.org/1999/xlink" x="0px" y="0px"
	 width="38.568px" height="38.568px" viewBox="0 0 38.568 38.568" enable-background="new 0 0 38.568 38.568" xml:space="preserve">
<g>
	<g>
		<defs>
			<rect id="SVGID_1_" x="0" y="0" width="38.568" height="38.568"/>
		</defs>
		<clipPath id="SVGID_2_">
			<use xlink:href="#SVGID_1_"  overflow="visible"/>
		</clipPath>
		<path clip-path="url(#SVGID_2_)" fill="#000000" d="M38.569,19.285c0,10.65-8.634,19.284-19.284,19.284
			C8.634,38.569,0,29.936,0,19.285C0,8.634,8.634,0,19.284,0C29.936,0,38.569,8.634,38.569,19.285"/>
	</g>
	<g>
		<path fill="#FFFFFF" d="M13.016,24.961l-1.119,3.024c1.844,1,4.143,1.454,6.294,1.544v2.997h2.451v-3.028
			c3.662-0.391,6.021-2.509,6.021-5.868c0-4.69-3.721-5.603-6.266-6.236c-1.938-0.483-3.752-0.97-3.752-2.512
			c0-1.662,1.149-2.541,2.905-2.541c1.362,0,2.724,0.091,4.902,0.967l1.117-2.901c-1.479-0.817-3.324-1.213-4.931-1.333V6.046
			h-2.451v3.053c-3.69,0.424-5.75,2.729-5.75,5.966c0,4.085,3.269,4.872,6.901,5.87c1.845,0.546,3.085,1.117,3.085,2.694
			c0,1.905-1.333,2.634-3.327,2.634C17.825,26.264,15.65,26.111,13.016,24.961"/>
	</g>
</g>
</svg>
