<?xml version="1.0" encoding="utf-8"?>
<!-- Generator: Adobe Illustrator 16.0.0, SVG Export Plug-In . SVG Version: 6.00 Build 0)  -->
<!DOCTYPE svg PUBLIC "-//W3C//DTD SVG 1.1//EN" "http://www.w3.org/Graphics/SVG/1.1/DTD/svg11.dtd">
<svg version="1.1" id="Layer_1" xmlns="http://www.w3.org/2000/svg" xmlns:xlink="http://www.w3.org/1999/xlink" x="0px" y="0px"
	 width="25.683px" height="42.74px" viewBox="4.14 -3.702 25.683 42.74" enable-background="new 4.14 -3.702 25.683 42.74"
	 xml:space="preserve">
<g>
	<g>
		<path fill="#DC1E32" d="M29.721,35.357l0.003-0.007c0,0-3.651-8.904-3.651-8.911c-0.29-0.707-1.089-1.029-1.789-0.743
			l-4.105,1.688c-1.595,0.653-2.623-0.949-4.457-4.387c-1.209-2.271-2.478-5.175-3.361-8.221c-0.618-2.137-1.055-4.288,0.615-4.973
			c0,0,4.116-1.68,4.115-1.682l0.005-0.007c0.739-0.3,1.021-1.117,0.747-1.794l0.004-0.006c0,0-3.756-9.165-3.756-9.171
			c-0.292-0.704-1.091-1.027-1.788-0.74L8.17-1.908C6.342-0.909,0.677,5.128,7.193,21.637c6.863,17.392,15.741,18.006,17.661,17.177
			c0,0,4.115-1.653,4.115-1.655l0.006-0.008C29.713,36.851,29.993,36.031,29.721,35.357L29.721,35.357z"/>
	</g>
</g>
</svg>
